<?xml version="1.0" encoding="UTF-8"?>
<svg width="512" height="512" viewBox="0 0 512 512" fill="none" xmlns="http://www.w3.org/2000/svg">
  <defs>
    <!-- Градиент для клинка -->
    <linearGradient id="bladeGradient" x1="50%" y1="0%" x2="50%" y2="100%">
      <stop offset="0%" style="stop-color:#E5E7EB;stop-opacity:1" /> <!-- gray-200 -->
      <stop offset="100%" style="stop-color:#9CA3AF;stop-opacity:1" /> <!-- gray-400 -->
    </linearGradient>
    <!-- Градиент для щита -->
    <linearGradient id="shieldGradient" x1="0%" y1="0%" x2="100%" y2="100%">
      <stop offset="0%" style="stop-color:#64748B;stop-opacity:1" /> <!-- slate-500 -->
      <stop offset="50%" style="stop-color:#475569;stop-opacity:1" /> <!-- slate-600 -->
      <stop offset="100%" style="stop-color:#334155;stop-opacity:1" /> <!-- slate-700 -->
    </linearGradient>
    <!-- Блик на щите -->
    <linearGradient id="shieldHighlight" x1="0%" y1="0%" x2="100%" y2="100%">
      <stop offset="0%" style="stop-color:#FFFFFF;stop-opacity:0.2" />
      <stop offset="100%" style="stop-color:#FFFFFF;stop-opacity:0" />
    </linearGradient>
    <!-- Градиент для рукояти -->
    <linearGradient id="hiltGradient" x1="0%" y1="0%" x2="100%" y2="100%">
      <stop offset="0%" style="stop-color:#92400E;stop-opacity:1" /> <!-- amber-800 -->
      <stop offset="100%" style="stop-color:#78350F;stop-opacity:1" /> <!-- amber-900 -->
    </linearGradient>

    <!-- Тень -->
    <filter id="shadow" x="-20%" y="-20%" width="140%" height="140%">
      <feGaussianBlur in="SourceAlpha" stdDeviation="8"/>
      <feOffset dx="0" dy="4"/>
      <feComponentTransfer>
        <feFuncA type="linear" slope="0.3"/>
      </feComponentTransfer>
      <feMerge>
        <feMergeNode/>
        <feMergeNode in="SourceGraphic"/>
      </feMerge>
    </filter>
  </defs>

  <g filter="url(#shadow)">
    <!-- Щит -->
    <path d="M146 120C136 120 126 130 126 140V300C126 320 146 340 156 350L256 420L356 350C366 340 386 320 386 300V140C386 130 376 120 366 120H146Z"
          fill="url(#shieldGradient)"
          stroke="#334155"
          stroke-width="2"/>
    <!-- Блик на щите -->
    <path d="M146 120C136 120 126 130 126 140V300C126 320 146 340 156 350L256 420L356 350C366 340 386 320 386 300V140C386 130 376 120 366 120H146Z"
          fill="url(#shieldHighlight)"
          stroke="none"/>

    <!-- Буква R -->
    <path d="M156 180C156 170 166 160 176 160H186C196 160 206 170 206 180V190C206 200 196 210 186 210H166V270H156V180Z
           M166 170V200H186C191 200 196 195 196 190V180C196 175 191 170 186 170H166Z
           M186 210L206 270H193L173 210H186Z"
          fill="url(#bladeGradient)" stroke="#4B5563" stroke-width="2"/>

    <!-- Буква P -->
    <path d="M306 180C306 170 316 160 326 160H336C346 160 356 170 356 180V190C356 200 346 210 336 210H316V270H306V180Z
           M316 170V200H336C341 200 346 195 346 190V180C346 175 341 170 336 170H316Z"
          fill="url(#bladeGradient)" stroke="#4B5563" stroke-width="2"/>

    <!-- Гарда -->
        <rect x="136" y="115" width="240" height="20" rx="5"
          fill="url(#bladeGradient)"
          stroke="#4B5563"
          stroke-width="2"/>

    <!-- Клинок (вертикальная часть) -->
    <path d="M236 120L276 120L276 340L256 360L236 340L236 120Z" 
          fill="url(#bladeGradient)"
          stroke="#4B5563"
          stroke-width="2"/>

    <!-- Рукоять -->
    <rect x="236" y="80" width="40" height="40" rx="5"
          fill="url(#hiltGradient)"
          stroke="#78350F"
          stroke-width="2"/>

    <!-- Навершие -->
    <rect x="226" y="60" width="60" height="20" rx="5"
          fill="url(#hiltGradient)"
          stroke="#78350F"
          stroke-width="2"/>
  </g>

  <!-- Блики на клинке -->
  <path d="M246 125L256 125L256 335L251 340L246 335L246 125Z"
        fill="white"
        fill-opacity="0.3"/>
</svg>
