<svg width="1371" height="1411" viewBox="0 0 1371 1411" fill="none" xmlns="http://www.w3.org/2000/svg">
<!-- Зеленая ветка (Работа с людьми) -->
<path d="M658.246 19.562L658.246 273.588L313.746 273.588L313.746 486.088" stroke="#6BD084" stroke-width="13"/>
<circle cx="315.246" cy="527.088" r="65" fill="#1D383D" stroke="#6BD084" stroke-width="7"/>
<circle cx="593.746" cy="515.588" r="46.5" fill="#6BD084" stroke="#6BD084"/>
<circle cx="454.746" cy="721.588" r="46.5" fill="#6BD084" stroke="#6BD084"/>
<circle cx="152.746" cy="323" r="46.5" fill="#6BD084" stroke="#6BD084"/>
<circle cx="199.746" cy="692.588" r="46.5" fill="#6BD084" stroke="#6BD084"/>
<path d="M314.246 341.588L456.746 341.588L456.746 700.088M314.746 396.587L199.246 396.588L199.246 682.088M150.746 335L150.746 402.587L150.746 473.087L199.246 473.087" stroke="#6BD084" stroke-width="11"/>
<path d="M458.245 401.99L592.246 401.989L592.245 507.489" stroke="#6BD084" stroke-width="11"/>

<!-- Синяя ветка (Программирование) -->
<path d="M707.244 19.562L707.244 863.088L443.244 863.088L443.244 1073.09" stroke="#03AED7" stroke-width="13"/>
<circle cx="433.244" cy="1100.09" r="65" fill="#1D383D" stroke="#03AED7" stroke-width="7"/>
<circle cx="187.744" cy="951.588" r="46.5" fill="#03AED7" stroke="#03AED7"/>
<circle cx="722.744" cy="1078.59" r="46.5" fill="#03AED7" stroke="#03AED7"/>
<circle cx="574.744" cy="1297.59" r="46.5" fill="#03AED7" stroke="#03AED7"/>
<circle cx="174.744" cy="1238.59" r="46.5" fill="#03AED7" stroke="#03AED7"/>
<path d="M203.744 951.588L361.231 951.574L448.243 951.566" stroke="#03AED7" stroke-width="11"/>
<path d="M442.243 951.588L721.244 951.588L721.244 1094.09M573.745 951.588L573.745 1307.59" stroke="#03AED7" stroke-width="11"/>
<path d="M313.743 951.588L313.743 1097.59L181.243 1097.59L181.243 1227.59" stroke="#03AED7" stroke-width="11"/>

<!-- Желтая ветка (Аналитика) -->
<path d="M756.009 17.8488L756.01 745.088L890.247 745.088L890.246 1121.59L1131.74 1121.59" stroke="#D8DF80" stroke-width="13"/>
<circle cx="1143.25" cy="1123.09" r="65" fill="#1D383D" stroke="#D8DF80" stroke-width="7"/>
<circle cx="1211.75" cy="926.588" r="46.5" fill="#D8DF80" stroke="#D8DF80"/>
<circle cx="896.746" cy="1363.59" r="46.5" fill="#D8DF80" stroke="#D8DF80"/>
<circle cx="1323.75" cy="1254.59" r="46.5" fill="#D8DF80" stroke="#D8DF80"/>
<path d="M1208.25 927.587L1012.25 927.588L1012.25 1118.59" stroke="#D8DF80" stroke-width="11"/>
<path d="M1012.75 1116.59L1012.75 1258.09L1322.75 1258.09" stroke="#D8DF80" stroke-width="11"/>
<path d="M1012.75 1189.09L895.745 1189.09L895.745 1330.09" stroke="#D8DF80" stroke-width="11"/>

<!-- Розовая ветка (Дизайн) -->
<path d="M805.248 19.5622L805.248 296.588L1129.75 296.588L1129.75 490.088" stroke="#F2647A" stroke-width="13"/>
<circle cx="1130.25" cy="491.088" r="65" fill="#1D383D" stroke="#F2647A" stroke-width="7"/>
<circle cx="1321.75" cy="312.588" r="46.5" fill="#F2647A" stroke="#F2647A"/>
<circle cx="933.746" cy="480.588" r="46.5" fill="#F2647A" stroke="#F2647A"/>
<circle cx="1258.75" cy="631.588" r="46.5" fill="#F2647A" stroke="#F2647A"/>
<circle cx="1036.75" cy="725.588" r="46.5" fill="#F2647A" stroke="#F2647A"/>
<path d="M1034.25 376.588L1034.25 717.087M1130.25 376.587L1259.75 376.588L1259.75 599.088" stroke="#F2647A" stroke-width="11"/>
<path d="M1305.4 312.208L1194.4 312.208L1194.4 378.207L1125.4 378.207L931.898 378.207L931.898 472.206" stroke="#F2647A" stroke-width="11"/>
</svg>




















